<?xml version="1.0" encoding="UTF-8" standalone="no"?>
<!-- Created with Inkscape (http://www.inkscape.org/) -->

<svg
   width="11in"
   height="8.5in"
   viewBox="0 0 279.40056 215.90043"
   version="1.1"
   id="svg1"
   xml:space="preserve"
   sodipodi:docname="RoboticsTeam.svg"
   inkscape:version="1.3.2 (091e20e, 2023-11-25, custom)"
   xmlns:inkscape="http://www.inkscape.org/namespaces/inkscape"
   xmlns:sodipodi="http://sodipodi.sourceforge.net/DTD/sodipodi-0.dtd"
   xmlns="http://www.w3.org/2000/svg"
   xmlns:svg="http://www.w3.org/2000/svg"
   xmlns:rdf="http://www.w3.org/1999/02/22-rdf-syntax-ns#"
   xmlns:cc="http://creativecommons.org/ns#"
   xmlns:dc="http://purl.org/dc/elements/1.1/"><sodipodi:namedview
     id="namedview1"
     pagecolor="#ffffff"
     bordercolor="#666666"
     borderopacity="1.0"
     inkscape:showpageshadow="2"
     inkscape:pageopacity="0.0"
     inkscape:pagecheckerboard="0"
     inkscape:deskcolor="#d1d1d1"
     inkscape:document-units="mm"
     inkscape:zoom="0.53050295"
     inkscape:cx="307.2556"
     inkscape:cy="475.96343"
     inkscape:window-width="2560"
     inkscape:window-height="1387"
     inkscape:window-x="2552"
     inkscape:window-y="-8"
     inkscape:window-maximized="1"
     inkscape:current-layer="svg1" /><title
     id="title12">WHS Robotics Team 9668</title><defs
     id="defs1" /><g
     id="layer1"
     transform="matrix(0.38127183,0,0,0.38673263,100.10281,-7.5672105)"><path
       style="fill:#c30000;fill-opacity:1;stroke-width:0.947537"
       d="m 186.88271,98.635987 -4.82015,8.695733 c 5.64946,8.67649 9.05983,18.09988 10.39273,28.39562 0.56485,7.50184 0.71292,15.23737 -1.17616,22.58725 -5.5537,22.38974 -22.86889,40.46338 -43.33792,50.27135 -12.63678,6.04135 -26.54369,9.65723 -40.63576,9.864 -16.01574,0.67326 -32.151672,-2.51282 -46.673095,-9.29659 -21.48778,-9.94252 -39.760536,-29.06231 -44.698047,-52.72184 -2.896834,-13.51926 -1.191847,-27.9045 4.758366,-40.38359 1.202455,-3.62979 2.663778,-4.49152 4.358448,-8.10768 l -4.960019,-8.264671 c -4.947336,5.194731 -7.728889,10.265961 -10.7832634,16.718591 -4.8372093,10.6674 -6.6405058,22.60535 -5.4554782,34.22478 2.202748,18.98963 12.9984886,36.17565 27.7300876,48.0534 16.792068,13.83611 38.008212,21.53331 59.437199,23.70501 11.705632,0.28258 23.556042,0.96294 35.117202,-1.38441 13.06436,-2.3719 25.41022,-6.71142 36.80654,-13.34647 12.49368,-7.203 23.44122,-17.35147 31.20017,-29.39252 5.48721,-9.39923 9.24706,-20.08722 9.96269,-31.04462 0.75171,-13.25549 -2.50571,-26.69712 -9.37152,-38.0752 -2.56513,-3.70782 -4.11253,-8.12828 -7.85202,-10.498143 z"
       id="path12" /><path
       id="path9"
       style="fill:#c30000;fill-opacity:1;stroke-width:0.947537"
       d="m 124.97751,86.83254 -44.057389,-0.16077 5.38589,17.42173 -9.328113,26.41803 -9.211841,-26.01961 4.508252,-17.533289 -56.630135,0.127124 23.447148,39.529885 27.539921,73.13042 h 21.085535 c 4.874645,-14.22024 10.022107,-28.0189 15.462072,-43.11726 4.72272,14.26476 14.58423,43.07046 14.58423,43.07046 l 21.17741,0.0633 27.01488,-71.94135 c 0,0 17.05587,-26.7291 23.81044,-40.98871 H 135.4823 c 0,0 1.64846,10.085817 1.56786,16.6026 l -8.61963,26.98389 -8.69301,-26.63611 c 2.18316,-7.441235 2.82943,-9.872047 5.23999,-16.95038 z m -58.468223,4.583183 -2.919719,13.069487 13.469922,34.98345 13.522746,-35.42528 -3.672127,-12.441105 32.358191,0.14366 -4.29328,11.924335 c 4.10291,11.29663 9.6649,26.04235 14.1025,36.25464 4.22157,-10.53149 12.51242,-36.63343 12.51242,-36.63343 -0.29921,-4.555857 -0.61044,-6.989855 -1.16892,-11.52384 l 42.03206,0.24908 c -5.88822,10.4995 -18.68724,30.84049 -18.68724,30.84049 l -26.60871,71.19411 -17.01756,-0.13281 c -4.97919,-14.59924 -11.23141,-33.26858 -17.14934,-49.27245 -5.519075,16.07746 -17.035102,49.08331 -17.035102,49.08331 L 68.782016,193.48391 41.327399,121.77445 C 35.305545,111.8963 29.299577,102.02674 23.826621,91.836369 Z" /><path
       style="fill:#c30000;fill-opacity:1;stroke-width:0.947537"
       d="M 101.30374,64.115696 C 66.741358,65.501165 36.742321,81.624319 33.296039,85.044651 L 47.874477,84.6886 C 62.70388,74.612377 83.590424,69.002942 101.48099,68.152659 c 18.10068,0.610645 47.39072,7.482092 60.00564,16.601054 l 11.93106,0.04547 C 159.48079,74.135697 132.01431,63.755307 101.30374,64.115691 Z"
       id="path8" /><path
       style="fill:#000080;stroke-width:0.947537"
       d="m 114.2925,94.976054 -22.795474,0.0336 2.30425,8.050666 -16.56747,44.93729 -16.96485,-44.32545 2.169893,-8.661996 -33.713186,-0.109547 15.795416,25.915193 26.68468,68.3178 13.54576,0.006 18.473951,-53.75818 19.18148,53.70607 13.36611,0.0185 25.55584,-69.38303 15.99644,-24.713206 -33.337,-0.124685 0.93708,8.545871 -15.91702,44.61277 -17.01033,-45.16002 z"
       id="path11" /></g><metadata
     id="metadata12"><rdf:RDF><cc:Work
         rdf:about=""><dc:title>WHS Robotics Team 9668</dc:title></cc:Work></rdf:RDF></metadata><text
     xml:space="preserve"
     style="font-style:normal;font-weight:normal;font-size:15.7942px;line-height:1.25;font-family:sans-serif;fill:#000000;fill-opacity:1;stroke:none;stroke-width:0.394855"
     x="82.125999"
     y="97.992264"
     id="text1"
     transform="scale(0.93232147,1.0725914)"><tspan
       sodipodi:role="line"
       id="tspan1"
       style="font-style:normal;font-variant:normal;font-weight:normal;font-stretch:normal;font-family:'Bookman Old Style';-inkscape-font-specification:'Bookman Old Style';stroke-width:0.394855"
       x="82.125999"
       y="97.992264">West High School</tspan></text><text
     xml:space="preserve"
     style="font-style:normal;font-weight:normal;font-size:25.4001px;line-height:1.25;font-family:sans-serif;fill:#000000;fill-opacity:1;stroke:none;stroke-width:0.264584"
     x="48.455875"
     y="141.5298"
     id="text2"><tspan
       sodipodi:role="line"
       id="tspan2"
       style="font-style:normal;font-variant:normal;font-weight:normal;font-stretch:normal;font-size:25.4001px;font-family:'Bookman Old Style';-inkscape-font-specification:'Bookman Old Style';stroke-width:0.264584"
       x="48.455875"
       y="141.5298">Robotics Team</tspan></text><text
     xml:space="preserve"
     style="font-style:normal;font-weight:normal;font-size:39.088px;line-height:1.25;font-family:sans-serif;fill:#000000;fill-opacity:1;stroke:none;stroke-width:0.977197"
     x="108.34221"
     y="166.53688"
     id="text3"
     transform="scale(0.89229531,1.1207052)"><tspan
       sodipodi:role="line"
       id="tspan3"
       style="font-style:normal;font-variant:normal;font-weight:normal;font-stretch:normal;font-family:'Bookman Old Style';-inkscape-font-specification:'Bookman Old Style';stroke-width:0.977197"
       x="108.34221"
       y="166.53688">9668</tspan></text></svg>
